<svg width="800" height="600" viewBox="0 0 800 600" fill="none" xmlns="http://www.w3.org/2000/svg">
<path d="M400 500C552.5 500 676 388.071 676 250C676 111.929 552.5 0 400 0C247.5 0 124 111.929 124 250C124 388.071 247.5 500 400 500Z" fill="#1E1E24"/>
<path d="M240 260C240 254.477 244.477 250 250 250H550C555.523 250 560 254.477 560 260V410C560 415.523 555.523 420 550 420H250C244.477 420 240 415.523 240 410V260Z" fill="#2D2D3A"/>
<path d="M270 280C270 277.239 272.239 275 275 275H525C527.761 275 530 277.239 530 280V380C530 382.761 527.761 385 525 385H275C272.239 385 270 382.761 270 380V280Z" fill="#121212"/>
<path d="M285 290H325V295H285V290Z" fill="#6366F1"/>
<path d="M285 305H345V310H285V305Z" fill="#8B5CF6"/>
<path d="M285 320H315V325H285V320Z" fill="#3B82F6"/>
<path d="M285 335H335V340H285V335Z" fill="#6366F1"/>
<path d="M285 350H305V355H285V350Z" fill="#8B5CF6"/>
<path d="M400 335C400 329.477 404.477 325 410 325H510C515.523 325 520 329.477 520 335V370C520 375.523 515.523 380 510 380H410C404.477 380 400 375.523 400 370V335Z" fill="#2D2D3A"/>
<path d="M450 345L470 355L450 365V345Z" fill="#6366F1"/>
<path d="M350 440C350 434.477 354.477 430 360 430H440C445.523 430 450 434.477 450 440V460C450 465.523 445.523 470 440 470H360C354.477 470 350 465.523 350 460V440Z" fill="#2D2D3A"/>
<path d="M375 450H425" stroke="#6366F1" stroke-width="3" stroke-linecap="round"/>
<path d="M400 437V463" stroke="#8B5CF6" stroke-width="3" stroke-linecap="round"/>
<circle cx="600" cy="180" r="30" fill="#6366F1" fill-opacity="0.3"/>
<circle cx="450" cy="120" r="20" fill="#8B5CF6" fill-opacity="0.3"/>
<circle cx="520" cy="100" r="15" fill="#3B82F6" fill-opacity="0.3"/>
<circle cx="220" cy="150" r="25" fill="#6366F1" fill-opacity="0.3"/>
<circle cx="300" cy="200" r="10" fill="#8B5CF6" fill-opacity="0.3"/>
<path d="M650 350C650 344.477 654.477 340 660 340H700C705.523 340 710 344.477 710 350V390C710 395.523 705.523 400 700 400H660C654.477 400 650 395.523 650 390V350Z" fill="#2D2D3A"/>
<path d="M680 350L680 390" stroke="#8B5CF6" stroke-width="2" stroke-dasharray="4 4"/>
<path d="M660 370L700 370" stroke="#6366F1" stroke-width="2" stroke-dasharray="4 4"/>
<path d="M170 350C170 344.477 174.477 340 180 340H220C225.523 340 230 344.477 230 350V390C230 395.523 225.523 400 220 400H180C174.477 400 170 395.523 170 390V350Z" fill="#2D2D3A"/>
<path d="M175 345H225" stroke="#3B82F6" stroke-width="2" stroke-linecap="round"/>
<path d="M175 355H225" stroke="#3B82F6" stroke-width="2" stroke-linecap="round"/>
<path d="M175 365H225" stroke="#3B82F6" stroke-width="2" stroke-linecap="round"/>
<path d="M175 375H225" stroke="#3B82F6" stroke-width="2" stroke-linecap="round"/>
<path d="M175 385H225" stroke="#3B82F6" stroke-width="2" stroke-linecap="round"/>
<path d="M175 395H225" stroke="#3B82F6" stroke-width="2" stroke-linecap="round"/>
</svg>